<?xml version="1.0" standalone="no"?>
<!DOCTYPE svg PUBLIC "-//W3C//DTD SVG 20010904//EN"
 "http://www.w3.org/TR/2001/REC-SVG-20010904/DTD/svg10.dtd">
<svg version="1.0" xmlns="http://www.w3.org/2000/svg"
 width="700.000000pt" height="700.000000pt" viewBox="0 0 700.000000 700.000000"
 preserveAspectRatio="xMidYMid meet">
<metadata>
Created by potrace 1.14, written by Peter Selinger 2001-2017
</metadata>
<g transform="translate(0.000000,700.000000) scale(0.100000,-0.100000)"
fill="#000000" stroke="none">
<path d="M3309 6806 c-2 -2 -44 -7 -94 -10 -49 -4 -101 -8 -115 -10 -14 -3
-45 -7 -70 -10 -89 -12 -185 -31 -360 -71 -94 -21 -336 -104 -479 -164 -110
-46 -320 -157 -446 -236 -640 -400 -1127 -1013 -1374 -1728 -62 -179 -117
-396 -137 -542 -4 -22 -7 -49 -9 -60 -26 -179 -33 -298 -30 -525 2 -124 5
-234 8 -245 2 -11 8 -56 12 -100 4 -44 8 -82 10 -86 2 -3 6 -25 9 -50 20 -157
93 -434 164 -624 248 -659 695 -1221 1277 -1603 71 -46 141 -92 155 -101 46
-30 284 -149 384 -191 242 -102 588 -198 815 -225 30 -4 62 -8 71 -10 102 -20
533 -27 685 -12 44 5 100 10 125 13 25 2 97 13 160 25 1050 186 1928 846 2402
1804 67 135 186 437 188 477 1 4 8 27 16 50 29 82 85 340 100 458 3 25 7 56 9
70 27 196 27 591 0 800 -3 19 -7 53 -10 75 -3 22 -7 50 -9 61 -2 12 -7 37 -10
55 -7 45 -32 161 -50 229 -60 235 -119 394 -226 616 -427 883 -1210 1525
-2156 1769 -72 19 -153 37 -180 41 -27 3 -52 8 -55 10 -4 2 -24 6 -45 10 -22
3 -50 7 -63 9 -14 3 -52 7 -85 10 -34 3 -74 8 -91 11 -38 6 -491 15 -496 10z
m356 -210 c106 -5 233 -18 318 -31 15 -3 42 -7 60 -10 17 -3 39 -8 47 -10 8
-2 31 -7 50 -10 19 -3 85 -19 145 -35 546 -146 995 -403 1391 -795 266 -264
449 -515 601 -825 116 -237 226 -553 258 -740 3 -19 8 -42 10 -50 4 -15 9 -38
21 -115 11 -67 18 -132 29 -255 5 -58 5 -370 0 -435 -7 -95 -16 -180 -20 -195
-2 -8 -6 -37 -10 -65 -3 -27 -8 -57 -10 -65 -2 -8 -6 -33 -10 -55 -3 -22 -10
-58 -16 -80 -6 -22 -12 -47 -14 -55 -13 -64 -84 -301 -104 -345 -5 -11 -24
-58 -42 -105 -76 -194 -227 -463 -372 -660 -103 -140 -164 -209 -326 -370
-317 -314 -674 -543 -1095 -700 -129 -48 -429 -131 -521 -144 -22 -3 -87 -12
-145 -20 -226 -32 -539 -36 -735 -11 -22 2 -62 7 -90 10 -27 3 -73 10 -101 16
-28 5 -64 12 -80 15 -16 3 -38 7 -49 8 -47 9 -227 58 -310 85 -784 253 -1434
809 -1810 1546 -132 257 -227 536 -281 817 -21 109 -21 109 -33 213 -34 292
-30 566 14 855 20 133 21 137 66 309 293 1133 1223 2014 2374 2250 160 32 306
51 458 57 78 4 143 7 144 8 2 2 17 1 35 0 18 -1 87 -5 153 -8z"/>
<path d="M2248 5105 c-2 -1 -43 -5 -93 -9 -49 -3 -124 -9 -165 -13 -41 -4
-180 -7 -307 -8 l-233 0 -1 -35 c-1 -40 -1 -229 0 -247 1 -6 34 -21 74 -32 39
-12 81 -26 93 -30 l21 -9 0 -1230 0 -1231 -26 -6 c-14 -4 -37 -9 -51 -11 -86
-15 -120 -28 -121 -48 -1 -27 -1 -227 0 -244 1 -10 92 -12 438 -10 l437 3 1
137 0 137 -40 7 c-22 3 -49 8 -60 10 -57 11 -129 24 -130 24 -1 0 -1 227 -1
505 0 452 1 505 15 506 9 0 63 1 120 1 99 0 104 -1 128 -26 36 -40 75 -134
121 -291 34 -120 86 -318 97 -373 2 -9 22 -93 45 -187 23 -93 44 -181 46 -194
12 -61 66 -211 85 -235 l20 -26 255 0 254 0 0 138 0 139 -50 24 c-68 33 -83
65 -180 389 -56 188 -82 263 -141 416 -62 159 -112 243 -182 307 -35 31 -39
39 -27 47 8 5 18 10 21 10 17 0 114 99 148 149 77 115 113 215 166 466 14 62
13 399 -1 490 -61 402 -255 568 -691 589 -45 2 -83 2 -85 1z m87 -296 c86 -24
151 -92 185 -195 12 -36 24 -77 26 -92 2 -15 8 -54 13 -87 10 -61 7 -430 -3
-475 -3 -14 -9 -41 -12 -60 -28 -169 -91 -288 -176 -331 -32 -17 -58 -20 -147
-20 -60 0 -115 3 -123 6 -12 5 -14 92 -14 626 l-1 619 26 6 c14 3 31 7 36 9
24 8 154 4 190 -6z"/>
<path d="M4458 5095 c-12 -11 -435 -27 -656 -25 l-23 0 3 -146 3 -146 75 -24
c41 -13 82 -24 91 -24 9 0 19 -6 21 -12 2 -7 3 -557 3 -1222 l-1 -1210 -50
-13 c-27 -7 -60 -15 -74 -18 -14 -2 -37 -7 -51 -10 l-25 -6 0 -137 1 -137 210
-1 c197 -2 425 -10 505 -20 45 -5 269 -6 295 -1 11 3 36 7 55 11 70 13 84 16
134 31 205 65 343 212 428 455 80 231 88 577 19 799 -65 210 -232 358 -426
378 -27 3 -51 6 -53 8 -1 1 27 16 62 34 141 69 275 273 312 474 18 100 22 170
19 292 -4 157 -7 181 -36 280 -31 103 -65 163 -130 227 -119 116 -283 166
-551 166 -86 0 -158 -1 -160 -3z m269 -301 c64 -31 107 -86 134 -174 28 -90
34 -159 33 -350 -3 -301 -64 -474 -188 -530 -31 -14 -61 -17 -150 -16 -61 2
-119 4 -128 4 -17 2 -18 35 -18 536 0 294 4 537 8 540 4 2 35 8 67 11 33 4 61
8 63 10 12 11 136 -10 179 -31z m13 -1398 c112 -34 172 -101 211 -236 18 -63
22 -106 25 -265 4 -250 -13 -359 -79 -494 -59 -119 -154 -175 -297 -173 -81 1
-124 6 -165 22 l-25 10 0 569 1 570 47 3 c86 5 257 2 282 -6z"/>
</g>
</svg>
